<svg width="254" height="375" viewBox="0 0 254 375" fill="none" xmlns="http://www.w3.org/2000/svg">
<path d="M63.0222 64L59.5222 61.5C59.5222 61.5 54.6083 69.4398 52.5222 75L52.4876 75.0923C51.8583 76.7695 51.4932 77.7427 51.0222 79.5C50.5068 81.4234 50.3087 82.5294 50.0222 84.5C49.628 87.2121 49.5566 88.7596 49.5222 91.5C49.4805 94.8249 49.8207 96.6809 50.0222 100C50.212 103.125 50.5222 108 50.5222 108L52.0222 115.5L54.5222 123.5L59.5222 136L64.5222 146.5L68.5222 153.5L73.5222 160L82.5222 169.5L95.5222 178C95.5222 178 104.599 182.118 110.522 184.5C114.593 186.137 116.748 187.506 121.022 188.5C125.603 189.565 128.32 189.578 133.022 189.5C136.946 189.435 139.161 189.2 143.022 188.5C146.797 187.815 148.931 187.349 152.522 186C156.856 184.372 159.477 183.29 163.5 181C167.08 178.962 169.106 177.335 172.5 175C176.168 172.476 177.717 170.984 181.022 168C184.611 164.76 186.301 162.605 189.522 159C191.921 156.315 193.421 154.924 195.522 152C197.77 148.873 198.769 146.929 200.522 143.5C202.834 138.98 205.522 131.5 205.522 131.5L209.022 118.5L210.022 111L211.022 103.5L210.022 90.5L208.522 81L207.022 74L203.022 61.5L198.022 64L189.522 50.5L216.022 31.5L225.522 45L221.022 50L231.522 75C231.522 75 235.338 84.9199 237.022 91.5C239.132 99.7411 240.522 113 240.522 113C240.522 113 241.631 119.376 242.022 123.5C242.447 127.975 242.522 130.505 242.522 135C242.522 139.495 242.41 142.021 242.022 146.5C241.631 151.012 241.381 153.553 240.522 158C239.759 161.952 239.154 164.137 238.022 168C236.981 171.555 236.393 173.558 235.022 177C233.503 180.814 232.474 182.888 230.522 186.5C228.564 190.124 227.312 192.076 225.022 195.5L224.841 195.771C222.391 199.435 220.953 201.587 218.022 205C214.964 208.562 213.005 210.352 209.522 213.5C206.332 216.384 204.477 217.939 201.022 220.5C197.629 223.016 196.062 224.73 192.5 227C187.693 230.064 187 231 179.5 234C172 237 170.737 237.003 165 238.5C158.441 240.211 154.5 241 148 242C141.5 243 138.544 243 132.022 243C125.5 243 123.544 243 117.522 242.5C111.5 242 103.522 240 103.522 240L88.5222 236.5L74.5222 229.5L61.5222 221.5L50.0222 211L39.0222 200L31.5222 186.5L26.0222 172L21.5222 156C21.5222 156 20.4146 151.154 20.0222 148C19.5878 144.507 19.5222 139 19.5222 139C19.5222 139 19.4249 134.427 19.5222 131.5C19.6198 128.566 19.8377 126.93 20.0222 124C20.2313 120.681 20.1975 118.809 20.5222 115.5C20.8109 112.559 21.0742 110.921 21.5222 108L21.5451 107.851C22.042 104.612 22.3281 102.747 23.0222 99.5C23.6955 96.3508 24.2453 94.6252 25.0222 91.5C25.7987 88.3768 26.1585 86.6063 27 83.5C27.9054 80.158 28.3919 78.2728 29.5222 75C30.4101 72.4293 30.9648 71.0057 32.0222 68.5C33.1093 65.9242 33.8105 64.5195 35.0222 62C37.4069 57.0415 41.5222 49.5 41.5222 49.5L37.5222 45L49.0222 32L71.5222 52.5L63.0222 64Z" fill="#FEE440" stroke="black" stroke-width="4" stroke-linejoin="round"/>
<path d="M120 188C124 189.5 142 191 152.762 185.5C152.762 185.5 152.443 180.93 152.262 178C152.047 174.517 151.764 172.567 151.762 169.077C151.761 165.557 151.997 163.587 152.262 160.077C152.677 154.594 152.972 151.519 153.762 146.077C154.194 143.109 155.022 138.5 155.022 138.5L156.499 131.401L159.5 131.577C159.5 131.577 163.785 131.749 166.522 131.577C168.38 131.461 169.422 131.356 171.262 131.077C173.335 130.762 174.505 130.57 176.522 130C178.62 129.407 181.762 128.077 181.762 128.077L191.762 123.577C191.762 123.577 194.298 124.903 196.022 125.5C197.637 126.059 198.582 126.268 200.262 126.577C201.91 126.881 204.522 127.077 204.522 127.077H208.762C208.762 127.077 211.378 126.896 213.022 126.577C216 126 221.5 124.5 224.262 122.077C225.923 120.62 226.944 119.849 228.262 118.077C229.462 116.464 230.762 113.577 230.762 113.577C230.762 113.577 233.762 107.506 233.762 102.577C233.762 98 230.762 91.0771 230.762 91.0771C230.762 91.0771 229.226 87.5377 227.762 85.5771C226.276 83.5855 225.241 82.5816 223.262 81.0771C220.89 79.2732 216.522 77.5 216.522 77.5C216.522 77.5 212.418 75.6813 209.762 74.5771C192.94 67.5827 165.262 60.5771 165.262 60.5771C162.712 59.302 157.022 60.4504 154.105 60.1264C151.787 59.8689 150.451 57 147.939 57C145.105 57 143.872 57.3135 141.6 58.65C139.935 59.629 138.682 61.5574 137.301 62.8619C135.607 64.4617 133.168 66.0698 131.048 67.0738C129.966 67.5862 128.988 68.1039 127.922 68.637C126.873 69.1613 125.839 68.9793 124.795 69.4186C123.971 69.7655 122.572 69.5054 121.669 69.5054C120.389 69.5054 119.367 70.2322 118.326 70.8949C113.836 73.7517 106.799 77.5633 108.577 83.9649C108.844 84.9235 109.617 90.399 108.577 90.6301C107.435 90.8839 106.283 92.8966 105.646 93.7348C103.852 96.0959 102.481 98.6233 100.848 101.073C97.8676 105.544 94.7288 110.201 90.9699 114.056C85.2283 119.945 81.3225 128.089 78.9421 135.897C78.2613 138.13 87.2887 168.871 86.5222 171C85.6344 173.466 113 187 120 188Z" fill="white"/>
<path d="M230.762 113.577C230.762 113.577 233.762 107.506 233.762 102.577C233.762 98 230.762 91.0771 230.762 91.0771C230.762 91.0771 229.226 87.5377 227.762 85.5771C226.276 83.5855 225.241 82.5816 223.262 81.0771C220.89 79.2732 216.522 77.5 216.522 77.5C216.522 77.5 212.418 75.6813 209.762 74.5771C192.94 67.5827 165.262 60.5771 165.262 60.5771C162.712 59.302 157.022 60.4504 154.105 60.1264C151.787 59.8689 150.451 57 147.939 57C145.105 57 143.872 57.3135 141.6 58.65C139.935 59.629 138.682 61.5574 137.301 62.8619C135.607 64.4617 133.168 66.0698 131.048 67.0738C129.966 67.5862 128.988 68.1039 127.922 68.637C126.873 69.1613 125.839 68.9793 124.795 69.4186C123.971 69.7655 122.572 69.5054 121.669 69.5054C120.389 69.5054 119.367 70.2322 118.326 70.8949C113.836 73.7517 106.799 77.5633 108.577 83.9649C108.844 84.9235 109.617 90.399 108.577 90.6301C107.435 90.8839 106.283 92.8966 105.646 93.7348C103.852 96.0959 102.481 98.6233 100.848 101.073C97.8676 105.544 94.7288 110.201 90.9699 114.056C85.2283 119.945 81.3225 128.089 78.9421 135.897C78.2613 138.13 87.2887 168.871 86.5222 171C85.6344 173.466 113 187 120 188C124 189.5 142 191 152.762 185.5C152.762 185.5 152.443 180.93 152.262 178C152.047 174.517 151.764 172.567 151.762 169.077C151.761 165.557 151.997 163.587 152.262 160.077C152.677 154.594 152.972 151.519 153.762 146.077C154.194 143.109 155.022 138.5 155.022 138.5L156.5 131.395M230.762 113.577C230.762 113.577 229.462 116.464 228.262 118.077C226.944 119.849 225.923 120.62 224.262 122.077C221.5 124.5 216 126 213.022 126.577C211.378 126.896 208.762 127.077 208.762 127.077H204.522C204.522 127.077 201.91 126.881 200.262 126.577C198.582 126.268 197.637 126.059 196.022 125.5C194.298 124.903 191.762 123.577 191.762 123.577L181.762 128.077C181.762 128.077 178.62 129.407 176.522 130C174.505 130.57 173.335 130.762 171.262 131.077C169.422 131.356 168.38 131.461 166.522 131.577C163.785 131.749 159.5 131.577 159.5 131.577L151 131.077C148.806 130.654 147.49 130.516 145.5 129.5C143.523 128.491 141.022 126 141.022 126L138.262 123.577M230.762 113.577L223.262 115.077C223.262 115.077 220.551 115.873 218.762 116.077C216.822 116.299 215.697 116.339 213.762 116.077C212.167 115.861 211.255 115.68 209.762 115.077C208.303 114.488 207.517 114.028 206.262 113.077C204.942 112.076 203.262 110.077 203.262 110.077L200.762 107.077M141.762 91.0771C142.168 90.7751 144.782 88.4229 146.522 87.5L147.522 87L149.022 86L151.522 85L154.762 84.0771H157.762L161.762 85.5771L165.262 87.5771" stroke="black" stroke-width="4" stroke-linecap="round" stroke-linejoin="round"/>
<path d="M132.752 199.706C132.947 198.862 132.576 197.988 131.834 197.542C131.091 197.096 130.145 197.178 129.492 197.747L120.542 205.527L110.377 199.419C109.635 198.973 108.689 199.056 108.035 199.624C107.381 200.193 107.168 201.117 107.506 201.915L112.14 212.831L103.19 220.611C102.536 221.179 102.323 222.104 102.661 222.901C103 223.699 103.813 224.188 104.676 224.112L116.49 223.079L121.123 233.995C121.462 234.792 122.275 235.281 123.138 235.205C124.002 235.13 124.718 234.507 124.913 233.663L127.58 222.108L139.394 221.075C140.257 220.999 140.973 220.377 141.168 219.532C141.363 218.688 140.992 217.815 140.25 217.368L130.085 211.261L132.752 199.706Z" fill="#F15BB5" stroke="black" stroke-width="4" stroke-linejoin="round"/>
<path d="M165.537 192.916C165.199 192.118 164.385 191.629 163.522 191.705C162.659 191.78 161.942 192.403 161.748 193.247L159.378 203.512L148.883 204.43C148.02 204.506 147.303 205.128 147.108 205.973C146.914 206.817 147.284 207.691 148.027 208.137L157.057 213.563L154.687 223.828C154.493 224.672 154.863 225.546 155.606 225.992C156.349 226.438 157.294 226.355 157.948 225.787L165.899 218.876L174.929 224.301C175.672 224.748 176.617 224.665 177.271 224.096C177.925 223.528 178.139 222.603 177.8 221.806L173.684 212.108L181.635 205.197C182.289 204.628 182.502 203.703 182.164 202.906C181.825 202.108 181.011 201.619 180.148 201.695L169.654 202.613L165.537 192.916Z" fill="#9B5DE5" stroke="black" stroke-width="4" stroke-linejoin="round"/>
<path d="M49.1641 296.434C49.1641 298.035 49.0859 299.695 48.9297 301.414C48.7734 303.094 48.5 304.734 48.1094 306.336C47.7188 307.938 47.1719 309.461 46.4688 310.906C45.8047 312.312 44.9453 313.562 43.8906 314.656C42.8359 315.711 41.5664 316.551 40.082 317.176C38.5977 317.801 36.8594 318.113 34.8672 318.113C31.9375 318.113 29.3789 317.43 27.1914 316.062C25.043 314.695 23.2461 312.957 21.8008 310.848C20.3555 308.699 19.2812 306.316 18.5781 303.699C17.875 301.043 17.5234 298.426 17.5234 295.848C17.5234 295.574 17.5234 295.32 17.5234 295.086C17.5234 294.852 17.543 294.637 17.582 294.441C17.6211 293.621 17.6797 292.508 17.7578 291.102C17.875 289.695 18.0508 288.191 18.2852 286.59C18.5195 284.988 18.8125 283.348 19.1641 281.668C19.5547 279.988 20.043 278.484 20.6289 277.156C21.2539 275.828 21.9961 274.734 22.8555 273.875C23.7148 273.016 24.7305 272.586 25.9023 272.586C26.7617 272.586 27.4844 272.84 28.0703 273.348C28.6562 273.855 29.125 274.5 29.4766 275.281C29.8672 276.023 30.1406 276.824 30.2969 277.684C30.4531 278.504 30.5312 279.266 30.5312 279.969C30.5312 281.023 30.4141 282.098 30.1797 283.191C29.9844 284.246 29.7891 285.301 29.5938 286.355C29.2812 288.035 29.0273 289.715 28.832 291.395C28.6367 293.074 28.5391 294.793 28.5391 296.551C28.5391 297.449 28.5781 298.543 28.6562 299.832C28.7734 301.121 29.0273 302.371 29.418 303.582C29.8086 304.754 30.3555 305.77 31.0586 306.629C31.8008 307.449 32.7969 307.859 34.0469 307.859C35.2578 307.859 36.2148 307.449 36.918 306.629C37.6602 305.809 38.207 304.832 38.5586 303.699C38.9102 302.566 39.125 301.375 39.2031 300.125C39.3203 298.875 39.3789 297.801 39.3789 296.902C39.3789 294.324 39.1641 291.785 38.7344 289.285C38.3047 286.746 37.7383 284.227 37.0352 281.727C36.8398 281.062 36.6641 280.398 36.5078 279.734C36.3906 279.07 36.332 278.406 36.332 277.742C36.332 276.648 36.6445 275.691 37.2695 274.871C37.9336 274.051 38.8516 273.641 40.0234 273.641C41 273.641 41.8984 274.031 42.7188 274.812C43.5781 275.555 44.3398 276.551 45.0039 277.801C45.668 279.012 46.2344 280.379 46.7031 281.902C47.2109 283.426 47.6406 284.949 47.9922 286.473C48.3438 287.957 48.5977 289.383 48.7539 290.75C48.9492 292.117 49.0664 293.23 49.1055 294.09C49.1445 294.48 49.1641 294.871 49.1641 295.262C49.1641 295.613 49.1641 296.004 49.1641 296.434ZM87.1328 291.863C87.1328 292.723 87.0938 293.953 87.0156 295.555C86.9375 297.117 86.7812 298.855 86.5469 300.77C86.3516 302.645 86.0586 304.578 85.668 306.57C85.2773 308.523 84.7695 310.301 84.1445 311.902C83.5195 313.504 82.7578 314.832 81.8594 315.887C80.9609 316.902 79.8867 317.41 78.6367 317.41C77.4648 317.41 76.3906 317.078 75.4141 316.414C74.4375 315.711 73.5586 314.871 72.7773 313.895C71.9961 312.879 71.3125 311.805 70.7266 310.672C70.1406 309.539 69.6523 308.504 69.2617 307.566C68.4414 305.574 67.6211 303.621 66.8008 301.707C65.9805 299.754 65.1992 297.781 64.457 295.789V297.43C64.457 299.109 64.4375 300.789 64.3984 302.469C64.3984 304.109 64.2812 305.75 64.0469 307.391C63.9688 308.055 63.8711 308.836 63.7539 309.734C63.6758 310.594 63.5391 311.453 63.3438 312.312C63.1484 313.172 62.8555 313.973 62.4648 314.715C62.1133 315.457 61.625 316.004 61 316.355C60.6484 316.551 60.3164 316.668 60.0039 316.707C59.7305 316.746 59.418 316.805 59.0664 316.883H58.8906C57.9922 316.883 57.2305 316.59 56.6055 316.004C55.9805 315.379 55.4531 314.598 55.0234 313.66C54.5938 312.684 54.2422 311.609 53.9688 310.438C53.7344 309.227 53.5391 308.055 53.3828 306.922C53.2656 305.75 53.1875 304.676 53.1484 303.699C53.1094 302.723 53.0898 301.941 53.0898 301.355C53.0898 300.457 53.1289 299.148 53.207 297.43C53.2852 295.672 53.4414 293.738 53.6758 291.629C53.9492 289.52 54.2812 287.352 54.6719 285.125C55.1016 282.898 55.6484 280.887 56.3125 279.09C56.9766 277.254 57.7773 275.77 58.7148 274.637C59.6523 273.465 60.7461 272.879 61.9961 272.879C63.207 272.879 64.2812 273.348 65.2188 274.285C66.1953 275.223 67.0547 276.336 67.7969 277.625C68.5391 278.914 69.1641 280.262 69.6719 281.668C70.1797 283.074 70.6094 284.246 70.9609 285.184C71.625 287.02 72.2695 288.855 72.8945 290.691C73.5195 292.488 74.125 294.324 74.7109 296.199C74.75 296.277 74.8281 296.492 74.9453 296.844C75.0625 297.195 75.1992 297.586 75.3555 298.016C75.5117 298.484 75.707 299.012 75.9414 299.598C75.9414 299.09 75.9219 298.738 75.8828 298.543C75.8828 298.309 75.8828 298.113 75.8828 297.957C75.8828 297.762 75.8828 297.527 75.8828 297.254C75.8828 296.98 75.8828 296.551 75.8828 295.965C75.8438 294.676 75.8047 293.387 75.7656 292.098C75.7656 290.809 75.7656 289.539 75.7656 288.289C75.7656 287.742 75.7656 286.98 75.7656 286.004C75.8047 285.027 75.8633 283.992 75.9414 282.898C76.0586 281.766 76.2148 280.633 76.4102 279.5C76.6055 278.367 76.8789 277.352 77.2305 276.453C77.6211 275.516 78.0898 274.754 78.6367 274.168C79.2227 273.582 79.9258 273.289 80.7461 273.289C81.7227 273.289 82.5625 273.66 83.2656 274.402C83.9688 275.145 84.5547 276.102 85.0234 277.273C85.4922 278.406 85.8633 279.695 86.1367 281.141C86.4102 282.547 86.625 283.934 86.7812 285.301C86.9375 286.668 87.0352 287.938 87.0742 289.109C87.1133 290.281 87.1328 291.199 87.1328 291.863ZM111.273 277.215C111.273 277.957 111.098 278.621 110.746 279.207C110.434 279.793 110.004 280.301 109.457 280.73C108.91 281.121 108.305 281.453 107.641 281.727C106.977 282 106.332 282.195 105.707 282.312C105.629 286.727 105.453 290.984 105.18 295.086C104.945 299.188 104.555 303.426 104.008 307.801H104.359C104.984 307.801 105.59 307.879 106.176 308.035C106.801 308.152 107.348 308.387 107.816 308.738C108.324 309.051 108.715 309.461 108.988 309.969C109.301 310.438 109.457 311.023 109.457 311.727C109.457 312.625 109.164 313.406 108.578 314.07C108.031 314.734 107.289 315.301 106.352 315.77C105.453 316.238 104.438 316.629 103.305 316.941C102.172 317.254 101.039 317.488 99.9062 317.645C98.7734 317.84 97.6992 317.977 96.6836 318.055C95.668 318.133 94.8477 318.172 94.2227 318.172C93.7539 318.172 93.168 318.152 92.4648 318.113C91.8008 318.074 91.1562 317.957 90.5312 317.762C89.9453 317.566 89.4375 317.273 89.0078 316.883C88.5781 316.492 88.3633 315.965 88.3633 315.301C88.3633 314.48 88.5391 313.758 88.8906 313.133C89.2031 312.469 89.6328 311.883 90.1797 311.375C90.7266 310.867 91.332 310.457 91.9961 310.145C92.6992 309.832 93.4023 309.598 94.1055 309.441C94.3789 307.293 94.6328 305.164 94.8672 303.055C95.1016 300.906 95.2578 298.738 95.3359 296.551C95.4141 294.324 95.4922 292.137 95.5703 289.988C95.6484 287.801 95.7266 285.613 95.8047 283.426C95.5312 283.465 95.2773 283.504 95.043 283.543C94.8086 283.543 94.5938 283.543 94.3984 283.543C93.8516 283.543 93.2656 283.484 92.6406 283.367C92.0156 283.25 91.4297 283.055 90.8828 282.781C90.3359 282.469 89.8672 282.098 89.4766 281.668C89.125 281.238 88.9492 280.691 88.9492 280.027C88.9492 278.699 89.4961 277.605 90.5898 276.746C91.7227 275.887 93.0508 275.223 94.5742 274.754C96.1367 274.285 97.7188 273.973 99.3203 273.816C100.922 273.621 102.211 273.523 103.188 273.523C103.734 273.523 104.457 273.562 105.355 273.641C106.254 273.719 107.133 273.895 107.992 274.168C108.891 274.441 109.652 274.812 110.277 275.281C110.941 275.75 111.273 276.395 111.273 277.215ZM137.992 287.176C137.992 287.918 137.895 288.699 137.699 289.52C137.543 290.34 137.27 291.102 136.879 291.805C136.488 292.508 135.98 293.094 135.355 293.562C134.73 294.031 133.969 294.266 133.07 294.266C131.703 294.266 130.688 294.031 130.023 293.562C129.359 293.055 128.891 292.43 128.617 291.688C128.344 290.945 128.188 290.164 128.148 289.344C128.148 288.484 128.129 287.684 128.09 286.941C128.051 286.199 127.914 285.594 127.68 285.125C127.484 284.617 127.035 284.363 126.332 284.363C125.551 284.363 124.867 284.656 124.281 285.242C123.695 285.789 123.188 286.512 122.758 287.41C122.328 288.309 121.957 289.324 121.645 290.457C121.371 291.59 121.137 292.723 120.941 293.855C120.785 294.949 120.668 296.004 120.59 297.02C120.512 297.996 120.473 298.797 120.473 299.422C120.473 300.242 120.492 301.219 120.531 302.352C120.609 303.484 120.805 304.578 121.117 305.633C121.43 306.648 121.898 307.527 122.523 308.27C123.148 308.973 124.047 309.324 125.219 309.324C126 309.324 126.762 309.227 127.504 309.031C128.246 308.836 128.988 308.621 129.73 308.387C130.473 308.113 131.215 307.879 131.957 307.684C132.738 307.488 133.52 307.391 134.301 307.391C135.199 307.391 135.941 307.762 136.527 308.504C137.113 309.207 137.406 310.008 137.406 310.906C137.406 312.156 137.016 313.328 136.234 314.422C135.453 315.477 134.477 316.414 133.305 317.234C132.172 318.055 130.922 318.699 129.555 319.168C128.227 319.637 127.016 319.871 125.922 319.871C123.109 319.871 120.727 319.227 118.773 317.938C116.82 316.688 115.238 315.066 114.027 313.074C112.816 311.043 111.938 308.797 111.391 306.336C110.883 303.836 110.629 301.355 110.629 298.895C110.629 297.254 110.785 295.457 111.098 293.504C111.41 291.551 111.879 289.598 112.504 287.645C113.129 285.652 113.91 283.738 114.848 281.902C115.824 280.066 116.957 278.445 118.246 277.039C119.535 275.633 120.98 274.5 122.582 273.641C124.223 272.781 126.02 272.352 127.973 272.352C129.887 272.352 131.488 272.84 132.777 273.816C134.066 274.754 135.102 275.965 135.883 277.449C136.664 278.895 137.211 280.496 137.523 282.254C137.836 283.973 137.992 285.613 137.992 287.176ZM153.754 318.934C151.371 318.934 149.301 318.328 147.543 317.117C145.785 315.945 144.32 314.363 143.148 312.371C142.016 310.34 141.156 307.996 140.57 305.34C140.023 302.684 139.75 299.891 139.75 296.961C139.75 294.227 140.043 291.453 140.629 288.641C141.254 285.828 142.191 283.289 143.441 281.023C144.691 278.758 146.273 276.902 148.188 275.457C150.102 274.012 152.387 273.289 155.043 273.289C157.621 273.289 159.77 273.992 161.488 275.398C163.246 276.766 164.633 278.562 165.648 280.789C166.703 282.977 167.445 285.438 167.875 288.172C168.344 290.906 168.578 293.641 168.578 296.375C168.578 299.422 168.266 302.312 167.641 305.047C167.055 307.742 166.137 310.125 164.887 312.195C163.676 314.266 162.133 315.906 160.258 317.117C158.422 318.328 156.254 318.934 153.754 318.934ZM154.457 286.238C153.715 286.238 153.07 286.531 152.523 287.117C152.016 287.703 151.586 288.484 151.234 289.461C150.883 290.398 150.629 291.473 150.473 292.684C150.316 293.855 150.238 295.047 150.238 296.258C150.238 297.625 150.316 298.992 150.473 300.359C150.668 301.727 150.941 302.957 151.293 304.051C151.645 305.145 152.074 306.023 152.582 306.688C153.129 307.352 153.773 307.684 154.516 307.684C155.375 307.684 156.059 307.254 156.566 306.395C157.074 305.535 157.465 304.5 157.738 303.289C158.051 302.078 158.246 300.828 158.324 299.539C158.441 298.25 158.5 297.176 158.5 296.316C158.5 295.262 158.422 294.148 158.266 292.977C158.148 291.805 157.934 290.73 157.621 289.754C157.309 288.738 156.898 287.898 156.391 287.234C155.883 286.57 155.238 286.238 154.457 286.238ZM200.453 286.18C200.453 288.875 199.828 291.297 198.578 293.445C197.328 295.594 195.668 297.488 193.598 299.129C194.223 300.066 194.867 301.16 195.531 302.41C196.195 303.66 196.781 304.988 197.289 306.395C197.836 307.762 198.266 309.148 198.578 310.555C198.93 311.922 199.105 313.191 199.105 314.363C199.105 315.613 198.793 316.727 198.168 317.703C197.582 318.719 196.566 319.227 195.121 319.227C193.91 319.227 192.855 318.641 191.957 317.469C191.098 316.297 190.316 314.91 189.613 313.309C188.949 311.668 188.324 310.008 187.738 308.328C187.191 306.648 186.664 305.301 186.156 304.285C185.453 304.52 184.77 304.793 184.105 305.105C183.441 305.379 182.758 305.652 182.055 305.926C182.016 306.785 181.938 307.977 181.82 309.5C181.742 310.984 181.527 312.469 181.176 313.953C180.863 315.438 180.375 316.727 179.711 317.82C179.047 318.914 178.129 319.461 176.957 319.461C175.668 319.461 174.672 318.934 173.969 317.879C173.266 316.824 172.758 315.574 172.445 314.129C172.172 312.684 172.016 311.219 171.977 309.734C171.938 308.211 171.918 307.02 171.918 306.16C171.918 304.324 171.957 302.527 172.035 300.77C172.113 298.973 172.152 297.156 172.152 295.32C172.152 293.641 172.113 291.961 172.035 290.281C171.996 288.602 171.977 286.902 171.977 285.184C171.977 284.793 171.977 284.305 171.977 283.719C171.977 283.094 171.996 282.469 172.035 281.844C172.113 281.18 172.191 280.555 172.27 279.969C172.348 279.383 172.484 278.914 172.68 278.562C173.07 277.742 173.949 276.961 175.316 276.219C176.723 275.477 178.246 274.832 179.887 274.285C181.566 273.699 183.188 273.25 184.75 272.938C186.352 272.586 187.543 272.41 188.324 272.41C190.316 272.41 192.074 272.781 193.598 273.523C195.121 274.266 196.391 275.281 197.406 276.57C198.422 277.82 199.184 279.285 199.691 280.965C200.199 282.605 200.453 284.344 200.453 286.18ZM189.613 287C189.613 285.984 189.379 285.223 188.91 284.715C188.441 284.168 187.68 283.895 186.625 283.895C185.844 283.895 185.043 284.031 184.223 284.305C183.441 284.578 182.719 284.891 182.055 285.242C182.211 288.328 182.27 291.395 182.23 294.441C183.051 294.168 183.891 293.816 184.75 293.387C185.609 292.957 186.391 292.43 187.094 291.805C187.836 291.18 188.441 290.477 188.91 289.695C189.379 288.914 189.613 288.016 189.613 287ZM236.605 291.863C236.605 292.723 236.566 293.953 236.488 295.555C236.41 297.117 236.254 298.855 236.02 300.77C235.824 302.645 235.531 304.578 235.141 306.57C234.75 308.523 234.242 310.301 233.617 311.902C232.992 313.504 232.23 314.832 231.332 315.887C230.434 316.902 229.359 317.41 228.109 317.41C226.938 317.41 225.863 317.078 224.887 316.414C223.91 315.711 223.031 314.871 222.25 313.895C221.469 312.879 220.785 311.805 220.199 310.672C219.613 309.539 219.125 308.504 218.734 307.566C217.914 305.574 217.094 303.621 216.273 301.707C215.453 299.754 214.672 297.781 213.93 295.789V297.43C213.93 299.109 213.91 300.789 213.871 302.469C213.871 304.109 213.754 305.75 213.52 307.391C213.441 308.055 213.344 308.836 213.227 309.734C213.148 310.594 213.012 311.453 212.816 312.312C212.621 313.172 212.328 313.973 211.938 314.715C211.586 315.457 211.098 316.004 210.473 316.355C210.121 316.551 209.789 316.668 209.477 316.707C209.203 316.746 208.891 316.805 208.539 316.883H208.363C207.465 316.883 206.703 316.59 206.078 316.004C205.453 315.379 204.926 314.598 204.496 313.66C204.066 312.684 203.715 311.609 203.441 310.438C203.207 309.227 203.012 308.055 202.855 306.922C202.738 305.75 202.66 304.676 202.621 303.699C202.582 302.723 202.562 301.941 202.562 301.355C202.562 300.457 202.602 299.148 202.68 297.43C202.758 295.672 202.914 293.738 203.148 291.629C203.422 289.52 203.754 287.352 204.145 285.125C204.574 282.898 205.121 280.887 205.785 279.09C206.449 277.254 207.25 275.77 208.188 274.637C209.125 273.465 210.219 272.879 211.469 272.879C212.68 272.879 213.754 273.348 214.691 274.285C215.668 275.223 216.527 276.336 217.27 277.625C218.012 278.914 218.637 280.262 219.145 281.668C219.652 283.074 220.082 284.246 220.434 285.184C221.098 287.02 221.742 288.855 222.367 290.691C222.992 292.488 223.598 294.324 224.184 296.199C224.223 296.277 224.301 296.492 224.418 296.844C224.535 297.195 224.672 297.586 224.828 298.016C224.984 298.484 225.18 299.012 225.414 299.598C225.414 299.09 225.395 298.738 225.355 298.543C225.355 298.309 225.355 298.113 225.355 297.957C225.355 297.762 225.355 297.527 225.355 297.254C225.355 296.98 225.355 296.551 225.355 295.965C225.316 294.676 225.277 293.387 225.238 292.098C225.238 290.809 225.238 289.539 225.238 288.289C225.238 287.742 225.238 286.98 225.238 286.004C225.277 285.027 225.336 283.992 225.414 282.898C225.531 281.766 225.688 280.633 225.883 279.5C226.078 278.367 226.352 277.352 226.703 276.453C227.094 275.516 227.562 274.754 228.109 274.168C228.695 273.582 229.398 273.289 230.219 273.289C231.195 273.289 232.035 273.66 232.738 274.402C233.441 275.145 234.027 276.102 234.496 277.273C234.965 278.406 235.336 279.695 235.609 281.141C235.883 282.547 236.098 283.934 236.254 285.301C236.41 286.668 236.508 287.938 236.547 289.109C236.586 290.281 236.605 291.199 236.605 291.863Z" fill="black"/>
<path d="M39.2266 332.969C39.2266 334.516 38.8828 336.034 38.1953 337.523C37.5365 339.013 36.6484 340.359 35.5312 341.562C34.4141 342.737 33.1393 343.711 31.707 344.484C30.2747 345.229 28.7995 345.645 27.2812 345.73C27.2526 346.246 27.224 346.905 27.1953 347.707C27.1953 348.48 27.1523 349.297 27.0664 350.156C26.9805 351.016 26.8516 351.875 26.6797 352.734C26.5365 353.594 26.3073 354.367 25.9922 355.055C25.7057 355.742 25.319 356.301 24.832 356.73C24.3737 357.16 23.8008 357.375 23.1133 357.375C22.3112 357.375 21.6667 357.103 21.1797 356.559C20.7214 356.043 20.3633 355.413 20.1055 354.668C19.8763 353.923 19.7188 353.15 19.6328 352.348C19.5469 351.517 19.4896 350.815 19.4609 350.242C19.4036 349.411 19.3607 348.595 19.332 347.793C19.332 346.991 19.332 346.174 19.332 345.344C19.332 344.971 19.332 344.284 19.332 343.281C19.332 342.25 19.332 341.09 19.332 339.801C19.3607 338.483 19.3893 337.122 19.418 335.719C19.4466 334.286 19.4896 332.969 19.5469 331.766C19.6042 330.534 19.6615 329.488 19.7188 328.629C19.8047 327.77 19.9049 327.268 20.0195 327.125C20.0482 327.096 20.1341 327.039 20.2773 326.953C20.4206 326.839 20.5781 326.738 20.75 326.652C20.9219 326.538 21.0794 326.438 21.2227 326.352C21.3659 326.266 21.4661 326.208 21.5234 326.18C22.8411 325.435 24.2878 324.79 25.8633 324.246C27.4388 323.702 29 323.43 30.5469 323.43C31.8646 323.43 33.0534 323.702 34.1133 324.246C35.2018 324.762 36.1185 325.464 36.8633 326.352C37.6367 327.211 38.224 328.228 38.625 329.402C39.026 330.548 39.2266 331.737 39.2266 332.969ZM31.793 333.957C31.793 333.384 31.6497 332.883 31.3633 332.453C31.1055 332.023 30.6615 331.809 30.0312 331.809C29.487 331.809 28.9427 331.923 28.3984 332.152C27.8542 332.353 27.3529 332.568 26.8945 332.797C26.9805 333.799 27.0521 334.773 27.1094 335.719C27.1953 336.664 27.2096 337.638 27.1523 338.641C27.6107 338.411 28.112 338.154 28.6562 337.867C29.2005 337.552 29.7018 337.208 30.1602 336.836C30.6185 336.464 31.0052 336.048 31.3203 335.59C31.6354 335.103 31.793 334.559 31.793 333.957ZM61.2266 333.398C61.2266 335.375 60.7682 337.151 59.8516 338.727C58.9349 340.302 57.7174 341.691 56.1992 342.895C56.6576 343.582 57.1302 344.384 57.6172 345.301C58.1042 346.217 58.5339 347.191 58.9062 348.223C59.3073 349.225 59.6224 350.242 59.8516 351.273C60.1094 352.276 60.2383 353.207 60.2383 354.066C60.2383 354.983 60.0091 355.799 59.5508 356.516C59.1211 357.26 58.3763 357.633 57.3164 357.633C56.4284 357.633 55.6549 357.203 54.9961 356.344C54.3659 355.484 53.793 354.467 53.2773 353.293C52.7904 352.09 52.332 350.872 51.9023 349.641C51.5013 348.409 51.1146 347.421 50.7422 346.676C50.2266 346.848 49.7253 347.048 49.2383 347.277C48.7513 347.478 48.25 347.678 47.7344 347.879C47.7057 348.509 47.6484 349.383 47.5625 350.5C47.5052 351.589 47.3477 352.677 47.0898 353.766C46.8607 354.854 46.5026 355.799 46.0156 356.602C45.5286 357.404 44.8555 357.805 43.9961 357.805C43.0508 357.805 42.3203 357.418 41.8047 356.645C41.2891 355.871 40.9167 354.954 40.6875 353.895C40.487 352.835 40.3724 351.76 40.3438 350.672C40.3151 349.555 40.3008 348.681 40.3008 348.051C40.3008 346.704 40.3294 345.387 40.3867 344.098C40.444 342.78 40.4727 341.448 40.4727 340.102C40.4727 338.87 40.444 337.638 40.3867 336.406C40.3581 335.174 40.3438 333.928 40.3438 332.668C40.3438 332.382 40.3438 332.023 40.3438 331.594C40.3438 331.135 40.3581 330.677 40.3867 330.219C40.444 329.732 40.5013 329.273 40.5586 328.844C40.6159 328.414 40.7161 328.07 40.8594 327.812C41.1458 327.211 41.7904 326.638 42.793 326.094C43.8242 325.549 44.9414 325.077 46.1445 324.676C47.3763 324.246 48.5651 323.917 49.7109 323.688C50.8854 323.43 51.7591 323.301 52.332 323.301C53.793 323.301 55.082 323.573 56.1992 324.117C57.3164 324.661 58.2474 325.406 58.9922 326.352C59.737 327.268 60.2956 328.342 60.668 329.574C61.0404 330.777 61.2266 332.052 61.2266 333.398ZM53.2773 334C53.2773 333.255 53.1055 332.697 52.7617 332.324C52.418 331.923 51.8594 331.723 51.0859 331.723C50.513 331.723 49.9258 331.823 49.3242 332.023C48.7513 332.224 48.2214 332.453 47.7344 332.711C47.849 334.974 47.8919 337.223 47.8633 339.457C48.4648 339.257 49.0807 338.999 49.7109 338.684C50.3411 338.368 50.9141 337.982 51.4297 337.523C51.974 337.065 52.418 336.549 52.7617 335.977C53.1055 335.404 53.2773 334.745 53.2773 334ZM72.5703 357.418C70.8229 357.418 69.3047 356.974 68.0156 356.086C66.7266 355.227 65.6523 354.066 64.793 352.605C63.9622 351.116 63.332 349.397 62.9023 347.449C62.5013 345.501 62.3008 343.453 62.3008 341.305C62.3008 339.299 62.5156 337.266 62.9453 335.203C63.4036 333.141 64.0911 331.279 65.0078 329.617C65.9245 327.956 67.0846 326.595 68.4883 325.535C69.8919 324.475 71.5677 323.945 73.5156 323.945C75.4062 323.945 76.9818 324.461 78.2422 325.492C79.5312 326.495 80.5482 327.812 81.293 329.445C82.0664 331.049 82.6107 332.854 82.9258 334.859C83.2695 336.865 83.4414 338.87 83.4414 340.875C83.4414 343.109 83.2122 345.229 82.7539 347.234C82.3242 349.211 81.651 350.958 80.7344 352.477C79.8464 353.995 78.7148 355.198 77.3398 356.086C75.9935 356.974 74.4036 357.418 72.5703 357.418ZM73.0859 333.441C72.5417 333.441 72.069 333.656 71.668 334.086C71.2956 334.516 70.9805 335.089 70.7227 335.805C70.4648 336.492 70.2786 337.28 70.1641 338.168C70.0495 339.027 69.9922 339.901 69.9922 340.789C69.9922 341.792 70.0495 342.794 70.1641 343.797C70.3073 344.799 70.5078 345.702 70.7656 346.504C71.0234 347.306 71.3385 347.951 71.7109 348.438C72.112 348.924 72.5846 349.168 73.1289 349.168C73.7591 349.168 74.2604 348.853 74.6328 348.223C75.0052 347.592 75.2917 346.833 75.4922 345.945C75.7214 345.057 75.8646 344.141 75.9219 343.195C76.0078 342.25 76.0508 341.462 76.0508 340.832C76.0508 340.059 75.9935 339.242 75.8789 338.383C75.793 337.523 75.6354 336.736 75.4062 336.02C75.1771 335.275 74.8763 334.659 74.5039 334.172C74.1315 333.685 73.6589 333.441 73.0859 333.441ZM107.977 336.664C107.977 339.185 107.461 341.62 106.43 343.969C105.398 346.289 104.009 348.352 102.262 350.156C100.543 351.961 98.5234 353.408 96.2031 354.496C93.9115 355.556 91.4909 356.086 88.9414 356.086H88.8555C88.3398 356.086 87.9102 355.857 87.5664 355.398C87.2513 354.911 86.9792 354.31 86.75 353.594C86.5208 352.878 86.349 352.076 86.2344 351.188C86.1198 350.299 86.0339 349.44 85.9766 348.609C85.9193 347.75 85.8906 346.991 85.8906 346.332C85.8906 345.645 85.8906 345.129 85.8906 344.785C85.8906 343.811 85.9049 342.852 85.9336 341.906C85.9622 340.932 86.0052 339.958 86.0625 338.984C86.0625 338.669 86.0768 338.211 86.1055 337.609C86.1628 336.979 86.2201 336.277 86.2773 335.504C86.3346 334.73 86.4062 333.928 86.4922 333.098C86.5781 332.238 86.6641 331.451 86.75 330.734C86.8646 329.99 86.9648 329.345 87.0508 328.801C87.1654 328.228 87.2943 327.841 87.4375 327.641C87.8099 327.01 88.3828 326.452 89.1562 325.965C89.9297 325.478 90.7604 325.077 91.6484 324.762C92.5651 324.447 93.4818 324.217 94.3984 324.074C95.3438 323.902 96.1602 323.816 96.8477 323.816C98.7383 323.816 100.371 324.174 101.746 324.891C103.15 325.578 104.31 326.523 105.227 327.727C106.172 328.901 106.859 330.262 107.289 331.809C107.747 333.355 107.977 334.974 107.977 336.664ZM100.758 337.91C100.758 337.28 100.643 336.635 100.414 335.977C100.185 335.318 99.8555 334.716 99.4258 334.172C99.0247 333.628 98.5234 333.198 97.9219 332.883C97.349 332.539 96.7044 332.367 95.9883 332.367C95.3867 332.367 94.7708 332.51 94.1406 332.797C93.9974 332.883 93.8685 333.155 93.7539 333.613C93.6393 334.043 93.5391 334.573 93.4531 335.203C93.3958 335.833 93.3385 336.521 93.2812 337.266C93.224 338.01 93.181 338.727 93.1523 339.414C93.1523 340.073 93.138 340.66 93.1094 341.176C93.1094 341.691 93.1094 342.035 93.1094 342.207C93.1094 342.493 93.1094 342.923 93.1094 343.496C93.1094 344.04 93.1237 344.585 93.1523 345.129C93.2096 345.673 93.2669 346.146 93.3242 346.547C93.3815 346.948 93.4818 347.148 93.625 347.148C94.4844 347.148 95.3294 346.819 96.1602 346.16C97.0195 345.473 97.793 344.642 98.4805 343.668C99.168 342.694 99.7122 341.677 100.113 340.617C100.543 339.557 100.758 338.655 100.758 337.91ZM132.941 340.918C132.941 342.092 132.884 343.31 132.77 344.57C132.655 345.802 132.454 347.005 132.168 348.18C131.882 349.354 131.48 350.471 130.965 351.531C130.478 352.562 129.848 353.479 129.074 354.281C128.301 355.055 127.37 355.671 126.281 356.129C125.193 356.587 123.918 356.816 122.457 356.816C120.309 356.816 118.432 356.315 116.828 355.312C115.253 354.31 113.935 353.035 112.875 351.488C111.815 349.913 111.027 348.165 110.512 346.246C109.996 344.298 109.738 342.379 109.738 340.488C109.738 340.288 109.738 340.102 109.738 339.93C109.738 339.758 109.753 339.6 109.781 339.457C109.81 338.855 109.853 338.039 109.91 337.008C109.996 335.977 110.125 334.874 110.297 333.699C110.469 332.525 110.684 331.322 110.941 330.09C111.228 328.858 111.586 327.755 112.016 326.781C112.474 325.807 113.018 325.005 113.648 324.375C114.279 323.745 115.023 323.43 115.883 323.43C116.513 323.43 117.043 323.616 117.473 323.988C117.902 324.361 118.246 324.833 118.504 325.406C118.79 325.951 118.991 326.538 119.105 327.168C119.22 327.77 119.277 328.328 119.277 328.844C119.277 329.617 119.191 330.405 119.02 331.207C118.876 331.98 118.733 332.754 118.59 333.527C118.361 334.759 118.174 335.991 118.031 337.223C117.888 338.454 117.816 339.715 117.816 341.004C117.816 341.663 117.845 342.465 117.902 343.41C117.988 344.355 118.174 345.272 118.461 346.16C118.747 347.02 119.148 347.764 119.664 348.395C120.208 348.996 120.939 349.297 121.855 349.297C122.743 349.297 123.445 348.996 123.961 348.395C124.505 347.793 124.906 347.077 125.164 346.246C125.422 345.415 125.579 344.542 125.637 343.625C125.723 342.708 125.766 341.921 125.766 341.262C125.766 339.371 125.608 337.509 125.293 335.676C124.978 333.814 124.562 331.966 124.047 330.133C123.904 329.646 123.775 329.159 123.66 328.672C123.574 328.185 123.531 327.698 123.531 327.211C123.531 326.409 123.76 325.707 124.219 325.105C124.706 324.504 125.379 324.203 126.238 324.203C126.954 324.203 127.613 324.49 128.215 325.062C128.845 325.607 129.404 326.337 129.891 327.254C130.378 328.142 130.793 329.145 131.137 330.262C131.509 331.379 131.824 332.496 132.082 333.613C132.34 334.702 132.526 335.747 132.641 336.75C132.784 337.753 132.87 338.569 132.898 339.199C132.927 339.486 132.941 339.772 132.941 340.059C132.941 340.316 132.941 340.603 132.941 340.918ZM154.77 334.129C154.77 334.673 154.698 335.246 154.555 335.848C154.44 336.449 154.24 337.008 153.953 337.523C153.667 338.039 153.294 338.469 152.836 338.812C152.378 339.156 151.819 339.328 151.16 339.328C150.158 339.328 149.413 339.156 148.926 338.812C148.439 338.44 148.095 337.982 147.895 337.438C147.694 336.893 147.579 336.32 147.551 335.719C147.551 335.089 147.536 334.501 147.508 333.957C147.479 333.413 147.379 332.969 147.207 332.625C147.064 332.253 146.734 332.066 146.219 332.066C145.646 332.066 145.145 332.281 144.715 332.711C144.285 333.112 143.913 333.642 143.598 334.301C143.283 334.96 143.01 335.704 142.781 336.535C142.581 337.366 142.409 338.197 142.266 339.027C142.151 339.829 142.065 340.603 142.008 341.348C141.951 342.064 141.922 342.651 141.922 343.109C141.922 343.711 141.936 344.427 141.965 345.258C142.022 346.089 142.165 346.891 142.395 347.664C142.624 348.409 142.967 349.053 143.426 349.598C143.884 350.113 144.543 350.371 145.402 350.371C145.975 350.371 146.534 350.299 147.078 350.156C147.622 350.013 148.167 349.855 148.711 349.684C149.255 349.483 149.799 349.311 150.344 349.168C150.917 349.025 151.49 348.953 152.062 348.953C152.721 348.953 153.266 349.225 153.695 349.77C154.125 350.285 154.34 350.872 154.34 351.531C154.34 352.448 154.053 353.307 153.48 354.109C152.908 354.883 152.191 355.57 151.332 356.172C150.501 356.773 149.585 357.246 148.582 357.59C147.608 357.934 146.72 358.105 145.918 358.105C143.855 358.105 142.108 357.633 140.676 356.688C139.243 355.771 138.083 354.582 137.195 353.121C136.307 351.632 135.663 349.984 135.262 348.18C134.889 346.346 134.703 344.527 134.703 342.723C134.703 341.52 134.818 340.202 135.047 338.77C135.276 337.337 135.62 335.905 136.078 334.473C136.536 333.012 137.109 331.608 137.797 330.262C138.513 328.915 139.344 327.727 140.289 326.695C141.234 325.664 142.294 324.833 143.469 324.203C144.672 323.573 145.99 323.258 147.422 323.258C148.826 323.258 150 323.616 150.945 324.332C151.891 325.02 152.65 325.908 153.223 326.996C153.796 328.056 154.197 329.23 154.426 330.52C154.655 331.78 154.77 332.983 154.77 334.129ZM175.094 326.652C175.094 327.368 174.807 328.027 174.234 328.629C173.69 329.202 173.017 329.717 172.215 330.176C171.441 330.605 170.639 330.964 169.809 331.25C168.978 331.536 168.29 331.737 167.746 331.852C167.517 334.057 167.331 336.263 167.188 338.469C167.073 340.646 167.016 342.837 167.016 345.043C167.016 346.217 167.044 347.378 167.102 348.523C167.159 349.669 167.188 350.815 167.188 351.961C167.188 352.477 167.13 353.049 167.016 353.68C166.93 354.281 166.758 354.854 166.5 355.398C166.271 355.943 165.941 356.401 165.512 356.773C165.082 357.146 164.552 357.332 163.922 357.332C163.177 357.332 162.576 357.117 162.117 356.688C161.688 356.286 161.344 355.785 161.086 355.184C160.857 354.582 160.699 353.952 160.613 353.293C160.527 352.605 160.484 351.99 160.484 351.445C160.427 349.727 160.384 348.008 160.355 346.289C160.327 344.542 160.312 342.794 160.312 341.047C160.312 339.586 160.312 338.154 160.312 336.75C160.341 335.346 160.355 333.914 160.355 332.453C159.954 332.51 159.539 332.553 159.109 332.582C158.708 332.611 158.293 332.625 157.863 332.625C157.52 332.625 157.061 332.596 156.488 332.539C155.944 332.453 155.414 332.324 154.898 332.152C154.383 331.952 153.939 331.694 153.566 331.379C153.194 331.035 153.008 330.605 153.008 330.09C153.008 329.23 153.352 328.486 154.039 327.855C154.698 327.197 155.543 326.638 156.574 326.18C157.634 325.693 158.794 325.292 160.055 324.977C161.344 324.633 162.604 324.375 163.836 324.203C165.096 324.003 166.242 323.859 167.273 323.773C168.333 323.688 169.15 323.645 169.723 323.645C170.267 323.645 170.84 323.673 171.441 323.73C172.072 323.759 172.659 323.874 173.203 324.074C173.747 324.275 174.191 324.576 174.535 324.977C174.908 325.378 175.094 325.936 175.094 326.652ZM187.727 326.824C187.727 327.368 187.598 327.855 187.34 328.285C187.111 328.715 186.796 329.087 186.395 329.402C185.993 329.689 185.549 329.932 185.062 330.133C184.576 330.333 184.103 330.477 183.645 330.562C183.587 333.799 183.458 336.922 183.258 339.93C183.086 342.938 182.799 346.046 182.398 349.254H182.656C183.115 349.254 183.559 349.311 183.988 349.426C184.447 349.512 184.848 349.684 185.191 349.941C185.564 350.171 185.85 350.471 186.051 350.844C186.28 351.188 186.395 351.617 186.395 352.133C186.395 352.792 186.18 353.365 185.75 353.852C185.349 354.339 184.805 354.754 184.117 355.098C183.458 355.441 182.714 355.728 181.883 355.957C181.052 356.186 180.221 356.358 179.391 356.473C178.56 356.616 177.772 356.716 177.027 356.773C176.283 356.831 175.681 356.859 175.223 356.859C174.879 356.859 174.449 356.845 173.934 356.816C173.447 356.788 172.974 356.702 172.516 356.559C172.086 356.415 171.714 356.201 171.398 355.914C171.083 355.628 170.926 355.241 170.926 354.754C170.926 354.152 171.055 353.622 171.312 353.164C171.542 352.677 171.857 352.247 172.258 351.875C172.659 351.503 173.103 351.202 173.59 350.973C174.105 350.743 174.621 350.572 175.137 350.457C175.337 348.882 175.523 347.32 175.695 345.773C175.867 344.198 175.982 342.608 176.039 341.004C176.096 339.371 176.154 337.767 176.211 336.191C176.268 334.587 176.326 332.983 176.383 331.379C176.182 331.408 175.996 331.436 175.824 331.465C175.652 331.465 175.495 331.465 175.352 331.465C174.951 331.465 174.521 331.422 174.062 331.336C173.604 331.25 173.174 331.107 172.773 330.906C172.372 330.677 172.029 330.405 171.742 330.09C171.484 329.775 171.355 329.374 171.355 328.887C171.355 327.913 171.757 327.111 172.559 326.48C173.389 325.85 174.363 325.363 175.48 325.02C176.626 324.676 177.786 324.447 178.961 324.332C180.135 324.189 181.081 324.117 181.797 324.117C182.198 324.117 182.728 324.146 183.387 324.203C184.046 324.26 184.69 324.389 185.32 324.59C185.979 324.79 186.538 325.062 186.996 325.406C187.483 325.75 187.727 326.223 187.727 326.824ZM198.168 357.418C196.421 357.418 194.902 356.974 193.613 356.086C192.324 355.227 191.25 354.066 190.391 352.605C189.56 351.116 188.93 349.397 188.5 347.449C188.099 345.501 187.898 343.453 187.898 341.305C187.898 339.299 188.113 337.266 188.543 335.203C189.001 333.141 189.689 331.279 190.605 329.617C191.522 327.956 192.682 326.595 194.086 325.535C195.49 324.475 197.165 323.945 199.113 323.945C201.004 323.945 202.579 324.461 203.84 325.492C205.129 326.495 206.146 327.812 206.891 329.445C207.664 331.049 208.208 332.854 208.523 334.859C208.867 336.865 209.039 338.87 209.039 340.875C209.039 343.109 208.81 345.229 208.352 347.234C207.922 349.211 207.249 350.958 206.332 352.477C205.444 353.995 204.312 355.198 202.938 356.086C201.591 356.974 200.001 357.418 198.168 357.418ZM198.684 333.441C198.139 333.441 197.667 333.656 197.266 334.086C196.893 334.516 196.578 335.089 196.32 335.805C196.062 336.492 195.876 337.28 195.762 338.168C195.647 339.027 195.59 339.901 195.59 340.789C195.59 341.792 195.647 342.794 195.762 343.797C195.905 344.799 196.105 345.702 196.363 346.504C196.621 347.306 196.936 347.951 197.309 348.438C197.71 348.924 198.182 349.168 198.727 349.168C199.357 349.168 199.858 348.853 200.23 348.223C200.603 347.592 200.889 346.833 201.09 345.945C201.319 345.057 201.462 344.141 201.52 343.195C201.605 342.25 201.648 341.462 201.648 340.832C201.648 340.059 201.591 339.242 201.477 338.383C201.391 337.523 201.233 336.736 201.004 336.02C200.775 335.275 200.474 334.659 200.102 334.172C199.729 333.685 199.257 333.441 198.684 333.441ZM236.453 337.566C236.453 338.197 236.424 339.099 236.367 340.273C236.31 341.419 236.195 342.694 236.023 344.098C235.88 345.473 235.665 346.891 235.379 348.352C235.092 349.784 234.72 351.087 234.262 352.262C233.803 353.436 233.245 354.41 232.586 355.184C231.927 355.928 231.139 356.301 230.223 356.301C229.363 356.301 228.576 356.057 227.859 355.57C227.143 355.055 226.499 354.439 225.926 353.723C225.353 352.978 224.852 352.19 224.422 351.359C223.992 350.529 223.634 349.77 223.348 349.082C222.746 347.621 222.145 346.189 221.543 344.785C220.941 343.353 220.368 341.906 219.824 340.445V341.648C219.824 342.88 219.81 344.112 219.781 345.344C219.781 346.547 219.695 347.75 219.523 348.953C219.466 349.44 219.395 350.013 219.309 350.672C219.251 351.302 219.151 351.932 219.008 352.562C218.865 353.193 218.65 353.78 218.363 354.324C218.105 354.868 217.747 355.27 217.289 355.527C217.031 355.671 216.788 355.757 216.559 355.785C216.358 355.814 216.129 355.857 215.871 355.914H215.742C215.083 355.914 214.525 355.699 214.066 355.27C213.608 354.811 213.221 354.238 212.906 353.551C212.591 352.835 212.333 352.047 212.133 351.188C211.961 350.299 211.818 349.44 211.703 348.609C211.617 347.75 211.56 346.962 211.531 346.246C211.503 345.53 211.488 344.957 211.488 344.527C211.488 343.868 211.517 342.909 211.574 341.648C211.632 340.359 211.746 338.941 211.918 337.395C212.118 335.848 212.362 334.258 212.648 332.625C212.964 330.992 213.365 329.517 213.852 328.199C214.339 326.853 214.926 325.764 215.613 324.934C216.301 324.074 217.103 323.645 218.02 323.645C218.908 323.645 219.695 323.988 220.383 324.676C221.099 325.363 221.729 326.18 222.273 327.125C222.818 328.07 223.276 329.059 223.648 330.09C224.021 331.121 224.336 331.98 224.594 332.668C225.081 334.014 225.553 335.361 226.012 336.707C226.47 338.025 226.914 339.371 227.344 340.746C227.372 340.803 227.43 340.961 227.516 341.219C227.602 341.477 227.702 341.763 227.816 342.078C227.931 342.422 228.074 342.809 228.246 343.238C228.246 342.866 228.232 342.608 228.203 342.465C228.203 342.293 228.203 342.15 228.203 342.035C228.203 341.892 228.203 341.72 228.203 341.52C228.203 341.319 228.203 341.004 228.203 340.574C228.174 339.629 228.146 338.684 228.117 337.738C228.117 336.793 228.117 335.862 228.117 334.945C228.117 334.544 228.117 333.986 228.117 333.27C228.146 332.553 228.189 331.794 228.246 330.992C228.332 330.161 228.447 329.331 228.59 328.5C228.733 327.669 228.934 326.924 229.191 326.266C229.478 325.578 229.822 325.02 230.223 324.59C230.652 324.16 231.168 323.945 231.77 323.945C232.486 323.945 233.102 324.217 233.617 324.762C234.133 325.306 234.562 326.008 234.906 326.867C235.25 327.698 235.522 328.643 235.723 329.703C235.923 330.734 236.081 331.751 236.195 332.754C236.31 333.757 236.382 334.688 236.41 335.547C236.439 336.406 236.453 337.079 236.453 337.566Z" fill="black"/>
<path d="M212.367 94.6181C214.352 92.0657 216.55 91 219.792 91C221.685 91.6311 224.607 96.4471 222.251 98.5672C220.322 100.304 217.718 100.772 215.133 100.341C212.421 99.8886 210.267 97.3175 212.367 94.6181Z" fill="white" stroke="black" stroke-width="4" stroke-linecap="round"/>
<path d="M29.0222 176C9.52231 180.5 6.52225 172 2.02223 167C1.60862 166.54 7.02223 164.448 13.5222 160.5C25.0222 153.515 32.8746 140.853 38 132C54.5 103.5 50.0222 105.25 59.5223 88.4743C65.5954 77.75 69.5223 63 78.5222 54C85.5222 47 92.5222 43 96.0222 41.5C99.5222 40 106.022 39.5 109.741 40C112.804 40 141.022 51.7573 143.522 52C145.114 52 150.051 51.7598 152.022 51C155.022 49.8438 163.698 47 164.998 46.5C169.088 44.9271 177.022 42 178.017 41.009C177.56 41.7219 173.013 49.1211 172.691 49.8438C172.3 50.7244 171.48 51.4257 170.954 52.2427C170.258 53.3264 169.224 54.333 168.234 55.1379C167.207 55.972 166.253 57.5091 164.998 58C163.947 58.981 154.59 64.5106 153.372 65.2757C151.318 66.5652 149.17 67.2548 146.919 68.0882C146.541 68.2282 146.203 68.3771 145.807 68.4651C145.651 68.4998 145.04 68.573 144.934 68.6581C144.676 68.8646 147.19 69.9486 147.627 70.1838C153.522 73 159.256 71.0124 160.022 71.5C160.522 72.0662 153.372 77.5 147.522 79C145.081 79.8138 140.709 80.3677 138.151 80.3677C137.103 80.3677 136.129 80.4892 135.302 79.7059C135.166 79.5773 133.887 78.6876 133.822 78.9798C133.436 80.7174 133.519 85.26 133.822 87C135.302 95.5 138.151 104.5 137.022 103L131.022 99.5C123.022 95.5 124.636 79 123.886 80.7353C123.529 81.5635 122.91 82.2842 122.489 83.0883C121.727 84.5429 121.088 86.0648 120.421 87.5644C119.523 89.5862 119.388 91.9357 118.721 94.0441C118.106 95.5325 113.702 112.753 113.463 114.366C113.299 115.477 112.966 116.514 112.838 117.647C112.719 118.706 112.558 119.766 112.388 120.818C112.112 122.026 110.982 140.535 110.982 141.783V145.625C111.522 153.5 118.055 165 117.522 164.5C107.242 166.955 105.934 158.03 105.891 157.711C105.916 158.591 106.269 186.921 98 202C89.5 217.5 101.61 241.5 108.5 251C110.203 253.349 94.3442 255.344 86 247C82 243 76.5222 228 76.5222 232C76.5222 249 52.5351 251.899 53.0222 251C59.5223 239 59.3273 221.668 58.5223 222.5C43.5222 238 12.5222 230 17.5223 228C35.9052 220.647 40.5223 203.5 40.5223 200.5C40.5223 198.965 32.0222 205 25.5222 205C21.3059 205 15.5222 205 5.02225 198C1.52223 197 16.5222 198 24.0222 187C24.0222 187 30.5708 175.643 29.0222 176Z" fill="#F15BB5"/>
<path d="M178.017 41.009C177.022 42 169.088 44.9271 164.998 46.5C163.698 47 155.022 49.8438 152.022 51C150.051 51.7598 145.114 52 143.522 52C141.022 51.7573 112.804 40 109.741 40C106.022 39.5 99.5222 40 96.0222 41.5C92.5222 43 85.5222 47 78.5222 54C69.5223 63 65.5954 77.75 59.5223 88.4743C50.0222 105.25 54.5 103.5 38 132C32.8746 140.853 25.0222 153.515 13.5222 160.5C7.02223 164.448 1.60862 166.54 2.02223 167C6.52225 172 9.52231 180.5 29.0222 176C30.5708 175.643 24.0222 187 24.0222 187C16.5222 198 1.52223 197 5.02225 198C15.5222 205 21.3059 205 25.5222 205C32.0222 205 40.5223 198.965 40.5223 200.5C40.5223 203.5 35.9052 220.647 17.5223 228C12.5222 230 43.5222 238 58.5223 222.5C59.3273 221.668 59.5223 239 53.0222 251C52.5351 251.899 76.5222 249 76.5222 232C76.5222 228 82 243 86 247C94.3442 255.344 110.203 253.349 108.5 251C101.61 241.5 89.5 217.5 98 202C106.5 186.5 105.89 157 105.89 157.702C105.89 157.702 107.055 167 117.522 164.5C118.055 165 111.522 153.5 110.982 145.625V141.783C110.982 140.535 112.112 122.026 112.388 120.818C112.558 119.766 112.719 118.706 112.838 117.647C112.966 116.514 113.299 115.477 113.463 114.366C113.702 112.753 118.106 95.5325 118.721 94.0441C119.388 91.9357 119.523 89.5862 120.421 87.5644C121.088 86.0648 121.727 84.5429 122.489 83.0883C122.91 82.2842 123.529 81.5635 123.886 80.7353C124.636 79 123.022 95.5 131.022 99.5L137.022 103C138.151 104.5 135.302 95.5 133.822 87C133.519 85.26 133.436 80.7174 133.822 78.9798C133.887 78.6876 135.166 79.5773 135.302 79.7059C136.129 80.4892 137.103 80.3677 138.151 80.3677C140.709 80.3677 145.081 79.8138 147.522 79C153.372 77.5 160.522 72.0662 160.022 71.5C159.256 71.0124 153.522 73 147.627 70.1838C147.19 69.9486 144.676 68.8646 144.934 68.6581C145.04 68.573 145.651 68.4998 145.807 68.4651C146.203 68.3771 146.541 68.2282 146.919 68.0882C149.17 67.2548 151.318 66.5652 153.372 65.2757C154.59 64.5106 163.947 58.981 164.998 58C166.253 57.5091 167.207 55.972 168.234 55.1379C169.224 54.333 170.258 53.3264 170.954 52.2427C171.48 51.4257 172.3 50.7244 172.691 49.8438C173.013 49.1211 177.56 41.7219 178.017 41.009ZM178.017 41.009C178.019 41.006 178.02 41.003 178.022 41" stroke="black" stroke-width="4" stroke-linecap="round"/>
<path d="M76.6811 174.328C76.501 173.48 75.7956 172.845 74.9339 172.755C74.0722 172.664 73.2502 173.139 72.8978 173.93L67.5786 185.877L54.5724 184.51C53.7107 184.42 52.8887 184.895 52.5363 185.686C52.1839 186.478 52.3812 187.406 53.0251 187.986L62.7438 196.737L57.4246 208.684C57.0722 209.475 57.2695 210.404 57.9134 210.983C58.5573 211.563 59.5013 211.662 60.2517 211.229L71.5773 204.69L81.296 213.441C81.9399 214.021 82.8839 214.12 83.6343 213.687C84.3847 213.254 84.7707 212.386 84.5906 211.539L81.8716 198.747L93.1972 192.208C93.9476 191.775 94.3337 190.908 94.1535 190.06C93.9734 189.213 93.268 188.578 92.4063 188.487L79.4002 187.12L76.6811 174.328Z" fill="#FEE440" stroke="black" stroke-width="4" stroke-linejoin="round"/>
<path d="M148.522 2L113.522 50L115.522 53L118.022 55.5L121.022 58L124.522 60L128.522 61.5L132.522 62.5H136.022L139.522 62L148.522 2Z" fill="#00F5D4" stroke="black" stroke-width="4" stroke-linejoin="round"/>
<path d="M137.522 18L144.522 27" stroke="black" stroke-width="4" stroke-linejoin="round"/>
<path d="M131.522 26L143.522 41" stroke="black" stroke-width="4" stroke-linejoin="round"/>
<path d="M125.007 34.0135L140.522 52.5L140.522 54" stroke="black" stroke-width="4" stroke-linejoin="round"/>
<path d="M119.522 42L136.022 62" stroke="black" stroke-width="4" stroke-linejoin="round"/>
<path d="M210.269 174.949C210.559 174.157 210.323 173.269 209.677 172.727C209.031 172.185 208.115 172.106 207.386 172.53L199.347 177.203L192.037 171.457C191.374 170.936 190.456 170.886 189.741 171.333C189.026 171.78 188.668 172.627 188.846 173.451L190.806 182.54L183.082 187.717C182.381 188.186 182.051 189.044 182.255 189.862C182.459 190.68 183.153 191.283 183.992 191.368L193.243 192.313L195.779 201.259C196.009 202.07 196.723 202.649 197.564 202.708C198.405 202.767 199.192 202.292 199.533 201.521L203.29 193.015L212.582 193.367C213.424 193.399 214.196 192.9 214.512 192.118C214.828 191.336 214.619 190.441 213.991 189.878L207.062 183.677L210.269 174.949Z" fill="#00BBF9" stroke="black" stroke-width="4" stroke-linejoin="round"/>
<path d="M226.631 142.949C226.737 142.089 226.276 141.259 225.491 140.893C224.706 140.527 223.774 140.708 223.183 141.341L217.485 147.452L209.912 143.921C209.127 143.555 208.195 143.736 207.605 144.37C207.014 145.003 206.898 145.945 207.318 146.703L211.369 154.011L205.67 160.121C205.08 160.755 204.964 161.697 205.384 162.455C205.804 163.213 206.664 163.614 207.515 163.449L215.716 161.854L219.767 169.162C220.187 169.92 221.048 170.321 221.898 170.156C222.749 169.99 223.396 169.296 223.502 168.436L224.52 160.143L232.722 158.549C233.572 158.384 234.219 157.689 234.325 156.829C234.431 155.969 233.97 155.139 233.185 154.773L225.613 151.242L226.631 142.949Z" fill="#00F5D4" stroke="black" stroke-width="4" stroke-linejoin="round"/>
</svg>
